<?xml version="1.0" encoding="utf-8"?>
<!-- Generator: Adobe Illustrator 23.0.3, SVG Export Plug-In . SVG Version: 6.00 Build 0)  -->
<svg version="1.1" id="图层_1" xmlns="http://www.w3.org/2000/svg" xmlns:xlink="http://www.w3.org/1999/xlink" x="0px" y="0px"
	 viewBox="0 0 32 32" style="enable-background:new 0 0 32 32;" xml:space="preserve">
<g>
	<path d="M16.4,2.6h5.1c1.8,0.6,3.5,1.3,5.2,2C26,4.9,24.5,5.6,23.8,6C21.3,4.8,18.9,3.6,16.4,2.6z"/>
	<path d="M0.3,3.4c2.3,0,4.5,0,6.8,0.1c0.4,1.1,0.8,2.2,1.2,3.3C8.7,6.9,9.6,7,10,7.1c0,2.5,0,4.9,0,7.4c3,1.8,6.1,3.5,9.1,5.2
		c3-1.7,6-3.5,9-5.1c0-2.5,0-5,0-7.6c1.2,0,2.4,0,3.6,0v3.7c-1.3,3.2-2.4,6.5-4.5,9.3c-4.6,0.8-9.3,0.7-14,1
		c0.2,0.5,0.6,1.6,0.8,2.2C19.1,23.3,24,23,29,23.3c1.5-0.1,2.2,1.4,2.8,2.5v1.8c-1.5-0.6-2.5,1.6-1.5,2.6h-2.7
		c-0.8-1.3-1.6-2.6-2.4-3.9c-4.6,0-9.2,0-13.8,0c-0.7,1.3-1.5,2.6-2.2,3.9H6.9c-0.7-1.2-1.5-2.3-2.3-3.4c0.2-3.3,3.4-3.8,6.1-3.9
		c-2-5.4-3.9-10.9-5.8-16.3c-1.5,0-3.1-0.1-4.6-0.1V3.4z"/>
	<path d="M11.6,4.8c1-0.4,1.9-0.9,2.9-1.3c2.5,1,5,2.3,7.4,3.6c-0.8,0.2-2.4,0.7-3.2,0.9C16.3,6.8,13.9,5.8,11.6,4.8z"/>
	<path d="M11.6,5.6c2.3,1,4.6,2,6.8,3c0,2.8,0,5.5,0,8.3c-2.3-1-4.6-2.2-6.8-3.3C11.5,11,11.5,8.3,11.6,5.6z"/>
	<path d="M24.1,6.9c0.6-0.3,1.8-0.9,2.3-1.1c0,2.6,0,5.3,0,7.9c-2.5,1.1-4.9,2.3-7.3,3.4c0-2.7-0.2-5.5,0.1-8.2
		c0.6-0.3,1.8-1,2.4-1.3c0.1,0.7,0.3,2.2,0.4,3C22.9,9.4,23.6,8.3,24.1,6.9z"/>
</g>
</svg>
