<?xml version="1.0" encoding="utf-8"?>
<!-- Generator: Adobe Illustrator 23.0.3, SVG Export Plug-In . SVG Version: 6.00 Build 0)  -->
<svg version="1.1" id="图层_1" xmlns="http://www.w3.org/2000/svg" xmlns:xlink="http://www.w3.org/1999/xlink" x="0px" y="0px"
	 viewBox="0 0 256 256" style="enable-background:new 0 0 256 256;" xml:space="preserve">
<g>
	<path d="M47.7,6.8c30.7-0.2,61.3,0.1,92-0.2c6.8-0.5,13.5,0.5,20.3,0.2c-2.4,0.3-4.7,0.8-7.1,0.9c-26.5,1.7-53,4.4-79.4,6.6
		c2.9,8.7,5.5,17.5,8.3,26.3C70.2,29.6,59.2,17.9,47.7,6.8z"/>
	<path d="M10.5,23.8c4.1-4.2,8.3-8.3,12.3-12.5c2.6,2.8,5.3,5.5,8.1,8c-3.1,3-6.2,6.1-9.3,9.2c0.4,10.3,0.2,20.6,0.1,30.8
		c5.3,5.2,10.4,10.8,16,15.8c11.2,0.6,22.5,0.1,33.7,0.2c0,3.8,0,7.6-0.1,11.3c-12.3-0.1-24.6,0-36.9-0.1c-1.6,0.3-2.5-1.3-3.6-2.2
		c-6.7-6.8-13.5-13.6-20.3-20.4C10.5,50.6,10.6,37.2,10.5,23.8z"/>
	<path d="M28.9,30.7c7.8,0,15.6,0,23.4,0c4.9,4.8,9.7,9.7,14.5,14.6c0,7.8-0.1,15.6,0,23.3c-7.9,0-15.8,0.3-23.6-0.1
		c-5-4.5-9.5-9.5-14.3-14.2C28.9,46.5,28.9,38.6,28.9,30.7z"/>
	<path d="M78.8,58.6c4.3,4.2,8.4,8.6,12.8,12.8c0,4.5,0.1,8.9-0.1,13.4c18.1,18.3,36.3,36.5,54.4,54.7c1,1.1,2.4,1.8,3.3,3
		c0.8-1,1.6-2,2.4-3c3.2,3.1,6.4,6.3,9.6,9.5c5.7,5.4,7.9,13.2,13,19c20.8,20.9,41.7,41.7,62.4,62.7c0.8,0.1,2.3,0.2,3.1,0.2
		c2.7,3.6,5.4,7.1,8.3,10.5c-3,2.7-5.8,5.5-8.4,8.6c-3.8-2.4-7.1-5.4-10.6-8.2c-0.1-3.4-3.2-5.3-5.3-7.5
		c-19.5-19.5-39-39.1-58.5-58.6c-4.9-3.9-10.7-6.4-15.7-10.1c-4.2-3.7-7.8-8-12-11.7c1-1,2-2,3.1-3C120.7,131,100.8,111,80.9,91.2
		c-0.9-1-2.4-1.9-2.1-3.5C78.8,78,78.8,68.3,78.8,58.6z"/>
	<path d="M8.7,79.1c11.6,11.1,22.8,22.7,34.3,34.1c-8.9-2.8-17.8-5.6-26.7-8.4c-1.6,24.1-4.2,48.1-5.9,72.2
		c-0.3,4.4-0.6,8.9-1.3,13.2C8.4,153.2,9.2,116.1,8.7,79.1z"/>
</g>
</svg>
