<?xml version="1.0" encoding="UTF-8" ?>
<!DOCTYPE svg PUBLIC "-//W3C//DTD SVG 1.1//EN" "http://www.w3.org/Graphics/SVG/1.1/DTD/svg11.dtd">
<svg width="256pt" height="256pt" viewBox="0 0 256 256" version="1.1" xmlns="http://www.w3.org/2000/svg">
<g id="#ffffffff">
</g>
<g id="#000000ff">
<path fill="#000000" opacity="1.00" d=" M 59.09 23.51 C 85.04 23.33 111.00 23.60 136.95 23.38 C 142.69 22.97 148.41 23.80 154.14 23.55 C 152.13 23.82 150.13 24.20 148.11 24.31 C 125.67 25.75 103.30 28.06 80.89 29.87 C 83.35 37.26 85.58 44.72 87.93 52.14 C 78.16 42.77 68.87 32.88 59.09 23.51 Z" />
<path fill="#000000" opacity="1.00" d=" M 27.59 37.83 C 31.02 34.25 34.62 30.83 38.03 27.23 C 40.24 29.57 42.51 31.85 44.87 34.04 C 42.21 36.61 39.59 39.22 37.01 41.86 C 37.34 50.55 37.20 59.26 37.09 67.95 C 41.61 72.37 45.89 77.08 50.61 81.29 C 60.05 81.81 69.65 81.36 79.15 81.49 C 79.16 84.69 79.16 87.89 79.10 91.09 C 68.70 91.00 58.29 91.13 47.90 91.02 C 46.52 91.30 45.76 89.93 44.85 89.20 C 39.15 83.41 33.39 77.68 27.65 71.93 C 27.62 60.57 27.73 49.20 27.59 37.83 Z" />
<path fill="#000000" opacity="1.00" d=" M 43.15 43.73 C 49.74 43.71 56.34 43.73 62.94 43.72 C 67.06 47.80 71.16 51.91 75.24 56.04 C 75.23 62.62 75.17 69.20 75.28 75.77 C 68.61 75.81 61.92 76.05 55.27 75.69 C 51.04 71.89 47.24 67.62 43.14 63.67 C 43.22 57.03 43.20 50.38 43.15 43.73 Z" />
<path fill="#000000" opacity="1.00" d=" M 85.40 67.35 C 89.05 70.90 92.52 74.64 96.20 78.16 C 96.24 81.94 96.27 85.73 96.14 89.51 C 111.44 105.00 126.85 120.38 142.18 135.84 C 143.00 136.81 144.17 137.40 145.01 138.35 C 145.70 137.49 146.38 136.63 147.06 135.77 C 149.78 138.43 152.45 141.14 155.16 143.81 C 159.95 148.34 161.82 155.01 166.19 159.86 C 183.76 177.57 201.48 195.14 219.00 212.90 C 219.66 212.95 220.96 213.04 221.61 213.09 C 223.88 216.11 226.18 219.10 228.60 222.00 C 226.10 224.29 223.67 226.67 221.48 229.26 C 218.29 227.20 215.45 224.65 212.48 222.30 C 212.39 219.43 209.78 217.85 208.03 215.95 C 191.53 199.43 175.06 182.88 158.55 166.36 C 154.42 163.08 149.47 160.98 145.23 157.83 C 141.71 154.69 138.61 151.10 135.11 147.94 C 135.97 147.11 136.83 146.28 137.70 145.44 C 120.87 128.58 104.07 111.68 87.20 94.86 C 86.46 93.99 85.21 93.24 85.41 91.92 C 85.40 83.73 85.44 75.54 85.40 67.35 Z" />
<path fill="#000000" opacity="1.00" d=" M 26.07 84.62 C 35.92 94.05 45.40 103.87 55.06 113.50 C 47.53 111.16 39.99 108.74 32.44 106.42 C 31.10 126.81 28.85 147.14 27.45 167.53 C 27.18 171.27 26.95 175.02 26.38 178.74 C 25.80 147.38 26.55 115.99 26.07 84.62 Z" />
</g>
</svg>
