<?xml version="1.0" encoding="UTF-8" ?>
<!DOCTYPE svg PUBLIC "-//W3C//DTD SVG 1.1//EN" "http://www.w3.org/Graphics/SVG/1.1/DTD/svg11.dtd">
<svg width="53pt" height="53pt" viewBox="0 0 53 53" version="1.1" xmlns="http://www.w3.org/2000/svg">

<g id="#000000ff">
<path fill="#000000" opacity="1.00" d=" M 24.70 0.00 L 28.61 0.00 C 41.29 0.90 52.11 11.73 53.00 24.40 L 53.00 28.26 C 52.35 41.07 41.37 52.10 28.61 53.00 L 24.63 53.00 C 11.76 52.25 0.66 41.11 0.00 28.23 L 0.00 24.40 C 0.90 11.65 11.90 0.68 24.70 0.00 M 21.26 4.23 C 9.95 6.64 1.78 18.60 3.86 30.02 C 5.48 42.10 17.95 51.35 29.99 49.15 C 42.13 47.55 51.34 35.00 49.13 22.93 C 47.47 10.22 33.70 0.81 21.26 4.23 Z" />
<path fill="#000000" opacity="1.00" d=" M 20.43 7.66 C 27.32 5.42 35.41 7.28 40.49 12.50 C 46.05 17.89 47.81 26.74 44.85 33.88 C 41.84 41.69 33.44 47.02 25.07 46.21 C 15.60 45.79 7.27 37.52 6.80 28.05 C 5.86 19.15 11.92 10.27 20.43 7.66 M 20.92 14.69 C 20.09 14.70 18.42 14.71 17.59 14.71 C 17.40 16.15 17.19 17.58 16.97 19.01 C 17.78 19.01 19.40 19.00 20.21 19.00 C 19.90 20.69 19.59 22.39 19.30 24.09 C 18.48 24.09 16.85 24.08 16.03 24.08 C 15.83 25.50 15.63 26.93 15.42 28.36 C 16.18 28.36 17.69 28.37 18.44 28.38 C 17.76 31.96 17.01 35.54 16.36 39.13 C 17.99 39.13 19.62 39.14 21.24 39.16 C 22.27 35.62 22.65 31.95 23.45 28.37 C 26.49 28.36 29.52 28.36 32.56 28.37 C 32.77 26.92 32.97 25.48 33.17 24.03 C 30.20 24.07 27.23 24.08 24.26 24.06 C 24.61 22.38 24.93 20.69 25.25 19.01 C 29.07 19.00 32.88 19.00 36.69 19.00 C 36.87 17.57 37.05 16.13 37.24 14.70 C 33.52 14.69 29.80 14.64 26.07 14.75 C 26.21 14.02 26.47 12.57 26.60 11.85 C 24.96 11.82 23.32 11.79 21.68 11.76 C 21.44 12.74 21.18 13.72 20.92 14.69 M 30.71 39.12 C 32.39 39.12 34.06 39.12 35.74 39.12 C 36.05 37.48 36.37 35.84 36.70 34.19 C 35.03 34.19 33.36 34.18 31.69 34.17 C 31.36 35.82 31.03 37.47 30.71 39.12 Z" />
</g>
</svg>
