<?xml version="1.0" encoding="utf-8"?>
<!-- Generator: Adobe Illustrator 23.0.3, SVG Export Plug-In . SVG Version: 6.00 Build 0)  -->
<svg version="1.1" id="图层_1" xmlns="http://www.w3.org/2000/svg" xmlns:xlink="http://www.w3.org/1999/xlink" x="0px" y="0px"
	 viewBox="0 0 60 60" style="enable-background:new 0 0 60 60;" xml:space="preserve">
<g>
	<path d="M28.6,0h2.9c2.8,1.9,5.4,3.8,8.2,5.7c-3,2-5.9,4.3-9,6.2c-3.5-1.6-6.4-4.6-9.8-6.6C23.5,3.5,26,1.7,28.6,0z"/>
	<path d="M4,17.2c3.8-2.6,7.5-5.3,11.3-7.9c3.2,2.3,6.4,4.6,9.7,6.8c-3.9,2.8-7.7,5.6-11.7,8.2c-3-2.3-6.2-4.4-9.3-6.6V17.2z"/>
	<path d="M36,16c3-2.2,6.1-4.4,9.2-6.5c3.6,2.6,7.2,5.1,10.8,7.6v0.4c-2.8,2.2-5.9,4.2-8.8,6.3C43.5,21.2,39.7,18.6,36,16z"/>
	<path d="M18.8,28c4-2.4,7.6-5.8,11.7-7.9c3.7,2.5,7.2,5.2,10.9,7.6c-3.7,2.9-7.6,5.5-11.5,8.2C26.2,33.4,22.5,30.7,18.8,28z"/>
	<path d="M4,20.2c2.9,2.2,5.9,4.2,8.8,6.2c0,6.8-0.1,13.7,0.1,20.5c-3-2.1-6-4-8.9-6.2V20.2z"/>
	<path d="M47.2,26.5c2.9-2.1,6-4.1,8.8-6.3v20.5c-2.9,2.2-5.9,4.2-8.9,6.2C47.3,40.1,47.2,33.3,47.2,26.5z"/>
	<path d="M18.6,30.6c3.8,2.6,7.6,5.3,11.4,8c3.8-2.7,7.6-5.3,11.5-8c0,6.8,0,13.7,0,20.5c-3.5,2.6-7.3,4.9-10.8,7.6l0,1.3h-0.9
		c-0.2-0.4-0.5-1.2-0.7-1.5c-3.3-2.7-7-4.9-10.5-7.4C18.6,44.2,18.5,37.4,18.6,30.6z"/>
</g>
</svg>
