<?xml version="1.0" encoding="utf-8"?>
<!-- Generator: Adobe Illustrator 23.0.3, SVG Export Plug-In . SVG Version: 6.00 Build 0)  -->
<svg version="1.1" id="图层_1" xmlns="http://www.w3.org/2000/svg" xmlns:xlink="http://www.w3.org/1999/xlink" x="0px" y="0px"
	 viewBox="0 0 56 56" style="enable-background:new 0 0 56 56;" xml:space="preserve">
<g>
	<path d="M27.8,0h9.9c0.8,5,0.5,10,0.5,15c0.3,2.2-1.7,3.5-2.9,5c5.7,0.1,11.5-0.4,17.1,0.3c0.1,0.4,0.4,1.3,0.6,1.7v34
		c-0.1,0-0.2,0-0.3,0H17.6c-1.6-4.1-0.7-8.7-0.9-13c0.2-7.3-0.5-14.6,0.3-21.8c2.7-3.1,6.3-5.2,9.3-8c0.8-0.6,1.2-1.3,1.1-2.3
		C27.7,7.3,27.5,3.6,27.8,0z"/>
	<path d="M3,20c3,0,6,0,9.1,0c0,12,0,24,0,36H3V20z"/>
</g>
</svg>
