<?xml version="1.0" encoding="UTF-8" ?>
<!DOCTYPE svg PUBLIC "-//W3C//DTD SVG 1.1//EN" "http://www.w3.org/Graphics/SVG/1.1/DTD/svg11.dtd">
<svg width="56pt" height="56pt" viewBox="0 0 56 56" version="1.1" xmlns="http://www.w3.org/2000/svg">
<g id="#000000ff">
<path fill="#000000" opacity="1.00" d=" M 0.00 0.00 L 11.36 0.00 C 11.36 0.79 11.37 2.38 11.37 3.18 C 8.66 3.18 5.95 3.18 3.24 3.24 C 3.18 5.95 3.18 8.66 3.17 11.37 C 2.38 11.37 0.79 11.38 0.00 11.38 L 0.00 0.00 Z" />
<path fill="#000000" opacity="1.00" d=" M 44.64 0.00 L 56.00 0.00 L 56.00 11.39 C 55.21 11.38 53.62 11.37 52.83 11.36 C 52.82 8.65 52.82 5.94 52.76 3.24 C 50.05 3.18 47.34 3.18 44.63 3.18 C 44.63 2.38 44.64 0.79 44.64 0.00 Z" />
<path fill="#000000" opacity="1.00" d=" M 18.85 15.05 C 18.97 11.49 18.29 7.65 20.04 4.37 C 20.87 6.71 20.73 9.20 20.90 11.64 C 21.40 11.37 22.40 10.84 22.90 10.57 C 24.04 12.93 25.26 15.25 26.48 17.57 C 26.98 15.67 27.49 13.77 28.01 11.86 C 28.54 13.81 29.07 15.75 29.62 17.68 C 31.05 15.11 31.77 11.90 34.43 10.25 C 34.49 8.25 34.21 6.00 36.11 4.67 C 36.53 8.62 36.00 12.78 37.78 16.47 C 37.79 15.60 37.80 13.85 37.81 12.98 C 38.07 10.54 38.15 8.07 38.15 5.61 C 41.80 5.74 45.49 5.35 49.12 5.84 C 50.49 6.74 50.31 8.51 50.38 9.93 C 50.39 21.96 50.35 33.99 50.40 46.02 C 50.35 47.54 50.62 49.69 48.79 50.33 C 44.55 50.61 40.28 50.33 36.03 50.45 C 35.44 47.56 34.85 44.66 34.24 41.78 C 38.61 41.58 42.98 41.45 47.35 41.25 C 43.52 39.29 39.67 37.37 35.86 35.36 C 38.37 31.96 40.94 28.61 43.49 25.24 C 39.51 26.87 35.57 28.59 31.56 30.15 C 30.40 26.17 29.30 22.17 28.13 18.19 C 27.03 22.20 25.85 26.19 24.76 30.21 C 20.75 28.62 16.81 26.86 12.78 25.32 C 15.37 28.63 17.89 32.00 20.44 35.35 C 16.63 37.35 12.79 39.28 8.97 41.25 C 13.31 41.43 17.65 41.65 22.00 41.75 C 21.39 44.64 20.81 47.54 20.32 50.46 C 15.95 50.32 11.57 50.62 7.21 50.33 C 5.37 49.69 5.66 47.51 5.60 45.98 C 5.65 33.97 5.61 21.96 5.62 9.95 C 5.70 8.48 5.46 6.45 7.14 5.75 C 10.46 5.47 13.79 5.69 17.11 5.59 C 17.12 9.08 17.12 12.57 17.14 16.05 C 17.57 15.80 18.42 15.30 18.85 15.05 M 21.00 13.94 C 22.06 17.07 23.81 19.92 25.53 22.73 C 26.48 18.87 23.37 15.69 21.82 12.43 C 21.61 12.81 21.20 13.56 21.00 13.94 M 30.42 20.28 C 30.68 21.00 30.95 21.72 31.21 22.44 C 32.70 19.58 34.12 16.69 35.48 13.77 C 35.09 13.58 34.31 13.18 33.92 12.99 C 32.81 15.45 31.61 17.87 30.42 20.28 M 13.65 19.42 C 14.94 22.00 15.91 25.00 18.81 26.25 C 17.35 22.75 15.78 19.28 13.76 16.06 C 13.00 17.19 12.97 18.31 13.65 19.42 M 19.09 17.16 C 20.77 20.38 22.37 23.64 24.06 26.86 C 24.22 26.22 24.54 24.94 24.70 24.29 C 23.36 21.59 22.01 18.90 20.53 16.27 C 20.17 16.49 19.45 16.93 19.09 17.16 M 35.94 15.90 C 34.30 19.41 31.18 22.83 32.04 26.96 C 33.86 23.93 35.48 20.76 36.89 17.52 C 36.65 17.11 36.18 16.31 35.94 15.90 M 33.33 27.90 C 34.70 27.13 36.13 26.30 36.66 24.72 C 37.65 22.21 40.12 19.82 39.13 16.95 C 36.54 20.21 35.01 24.13 33.33 27.90 M 37.32 26.29 C 41.08 24.69 41.79 20.34 43.63 17.14 C 43.22 17.04 42.40 16.84 41.99 16.74 C 40.35 19.88 38.71 23.02 37.32 26.29 M 17.78 21.16 C 19.14 23.67 20.03 26.83 23.05 27.81 C 21.36 24.15 19.65 20.49 17.52 17.06 C 16.27 18.42 17.18 19.87 17.78 21.16 Z" />
<path fill="#000000" opacity="1.00" d=" M 0.00 44.69 C 0.78 44.64 2.34 44.54 3.12 44.49 C 3.15 47.28 3.20 50.06 3.21 52.85 C 5.92 52.80 8.63 52.81 11.34 52.80 C 11.35 53.60 11.36 55.20 11.36 56.00 L 0.00 56.00 L 0.00 44.69 Z" />
<path fill="#000000" opacity="1.00" d=" M 22.87 50.42 C 24.61 48.50 26.37 46.59 28.15 44.71 C 29.98 46.60 31.73 48.57 33.47 50.53 C 32.85 50.52 31.61 50.52 30.99 50.51 C 30.53 49.72 29.61 48.12 29.15 47.33 C 28.88 48.42 28.32 50.60 28.04 51.68 C 27.89 50.55 27.60 48.29 27.45 47.16 C 26.73 48.27 26.00 49.38 25.33 50.52 L 22.87 50.42 Z" />
<path fill="#000000" opacity="1.00" d=" M 52.88 44.50 C 53.66 44.54 55.22 44.63 56.00 44.67 L 56.00 56.00 L 44.64 56.00 C 44.64 55.20 44.65 53.60 44.65 52.80 C 47.37 52.81 50.08 52.80 52.79 52.85 C 52.80 50.07 52.85 47.29 52.88 44.50 Z" />
</g>
</svg>
