<?xml version="1.0" encoding="UTF-8" ?>
<!DOCTYPE svg PUBLIC "-//W3C//DTD SVG 1.1//EN" "http://www.w3.org/Graphics/SVG/1.1/DTD/svg11.dtd">
<svg width="255pt" height="256pt" viewBox="0 0 255 256" version="1.1" xmlns="http://www.w3.org/2000/svg">
<g id="#ffffffff">
</g>
<g id="#000000ff">
<path fill="#000000" opacity="1.00" d=" M 114.01 30.78 C 123.25 30.79 132.50 30.82 141.75 30.77 C 141.75 61.15 141.75 91.53 141.75 121.90 C 168.21 137.18 194.62 152.55 221.06 167.85 C 216.55 175.93 211.66 183.81 207.36 192.00 C 180.83 176.73 154.36 161.35 127.91 145.95 C 101.40 161.45 74.78 176.75 48.25 192.20 C 47.33 192.73 46.36 193.12 45.33 193.38 C 41.51 185.09 36.44 177.42 31.93 169.49 C 59.34 153.65 86.69 137.71 114.11 121.89 C 114.04 91.52 114.25 61.15 114.01 30.78 Z" />
<path fill="#000000" opacity="1.00" d=" M 69.33 39.37 C 79.34 39.34 89.34 39.39 99.34 39.35 C 99.28 43.00 99.29 46.64 99.32 50.29 C 92.93 50.32 86.55 50.23 80.16 50.34 C 80.35 56.70 80.19 63.06 80.27 69.42 C 76.63 69.43 72.98 69.42 69.34 69.46 C 69.36 59.43 69.38 49.40 69.33 39.37 Z" />
<path fill="#000000" opacity="1.00" d=" M 156.36 39.42 C 166.38 39.32 176.40 39.35 186.41 39.40 C 186.32 49.41 186.38 59.43 186.38 69.45 C 182.73 69.43 179.08 69.43 175.44 69.41 C 175.57 63.07 175.37 56.72 175.58 50.38 C 169.18 50.16 162.78 50.35 156.38 50.29 C 156.42 46.67 156.42 43.04 156.36 39.42 Z" />
<path fill="#000000" opacity="1.00" d=" M 47.25 67.17 C 63.98 76.77 80.63 86.52 97.36 96.15 C 97.34 101.49 97.34 106.84 97.36 112.19 C 92.77 114.98 88.09 117.60 83.46 120.32 C 66.79 110.53 50.04 100.85 33.28 91.21 C 38.12 83.30 42.54 75.15 47.25 67.17 Z" />
<path fill="#000000" opacity="1.00" d=" M 158.44 96.21 C 174.21 87.00 190.07 77.94 205.81 68.68 C 210.48 76.75 215.03 84.90 219.78 92.93 C 203.90 101.82 188.18 111.05 172.48 120.27 C 167.71 117.73 163.10 114.90 158.43 112.18 C 158.49 106.86 158.50 101.53 158.44 96.21 Z" />
<path fill="#000000" opacity="1.00" d=" M 204.52 110.15 C 211.62 117.19 218.67 124.28 225.71 131.39 C 218.59 138.39 211.60 145.52 204.54 152.58 C 201.96 149.95 199.27 147.42 196.78 144.70 C 201.54 140.50 205.76 135.73 210.37 131.37 C 205.88 126.75 201.19 122.34 196.79 117.65 C 199.54 115.33 201.93 112.64 204.52 110.15 Z" />
<path fill="#000000" opacity="1.00" d=" M 28.07 131.22 C 35.27 124.31 42.22 117.15 49.22 110.04 C 51.87 112.62 54.45 115.27 57.12 117.84 C 52.44 122.16 48.18 126.90 43.51 131.21 C 47.95 135.87 52.53 140.39 57.11 144.90 C 54.43 147.42 51.88 150.06 49.25 152.63 C 42.33 145.37 35.11 138.38 28.07 131.22 Z" />
<path fill="#000000" opacity="1.00" d=" M 114.02 173.08 C 118.77 170.60 123.29 167.72 127.95 165.07 C 132.51 167.90 137.29 170.37 141.79 173.29 C 141.72 192.94 141.72 212.59 141.79 232.25 C 132.53 232.33 123.27 232.27 114.00 232.28 C 114.20 212.55 114.17 192.81 114.02 173.08 Z" />
<path fill="#000000" opacity="1.00" d=" M 69.31 193.29 C 72.96 193.27 76.61 193.28 80.26 193.29 C 80.19 199.63 80.38 205.98 80.12 212.33 C 86.52 212.49 92.93 212.39 99.34 212.35 C 99.27 215.97 99.29 219.60 99.33 223.23 C 89.31 223.43 79.28 223.33 69.26 223.29 C 69.47 213.29 69.35 203.29 69.31 193.29 Z" />
<path fill="#000000" opacity="1.00" d=" M 175.47 193.28 C 179.13 193.29 182.78 193.23 186.44 193.35 C 186.30 203.35 186.37 213.34 186.41 223.34 C 176.38 223.33 166.36 223.33 156.34 223.34 C 156.45 219.70 156.42 216.06 156.32 212.42 C 162.73 212.39 169.13 212.38 175.54 212.42 C 175.44 206.04 175.50 199.66 175.47 193.28 Z" />
</g>
</svg>
