<?xml version="1.0" encoding="utf-8"?>
<!-- Generator: Adobe Illustrator 23.0.3, SVG Export Plug-In . SVG Version: 6.00 Build 0)  -->
<svg version="1.1" id="图层_1" xmlns="http://www.w3.org/2000/svg" xmlns:xlink="http://www.w3.org/1999/xlink" x="0px" y="0px"
	 viewBox="0 0 255 256" style="enable-background:new 0 0 255 256;" xml:space="preserve">
<g>
	<path d="M112,4.1c11.4,0,22.8,0,34.2,0c0,37.5,0,75,0,112.5c32.7,18.9,65.3,37.8,97.9,56.7c-5.6,10-11.6,19.7-16.9,29.8
		c-32.8-18.9-65.4-37.8-98.1-56.9c-32.7,19.1-65.6,38-98.3,57.1c-1.1,0.7-2.3,1.1-3.6,1.5c-4.7-10.2-11-19.7-16.5-29.5
		c33.8-19.6,67.6-39.2,101.5-58.8C112,79.1,112.3,41.6,112,4.1z"/>
	<path d="M56.8,14.8c12.4,0,24.7,0,37,0c-0.1,4.5-0.1,9,0,13.5c-7.9,0-15.8-0.1-23.7,0.1c0.2,7.9,0,15.7,0.1,23.6c-4.5,0-9,0-13.5,0
		C56.9,39.5,56.9,27.1,56.8,14.8z"/>
	<path d="M164.3,14.8c12.4-0.1,24.7-0.1,37.1,0c-0.1,12.4,0,24.7,0,37.1c-4.5,0-9,0-13.5,0c0.2-7.8-0.1-15.7,0.2-23.5
		c-7.9-0.3-15.8,0-23.7-0.1C164.3,23.8,164.3,19.3,164.3,14.8z"/>
	<path d="M29.6,49.1C50.2,60.9,70.8,73,91.4,84.9c0,6.6,0,13.2,0,19.8c-5.7,3.4-11.4,6.7-17.2,10c-20.6-12.1-41.3-24-62-35.9
		C18.3,69,23.8,58.9,29.6,49.1z"/>
	<path d="M166.8,84.9c19.5-11.4,39-22.6,58.5-34c5.8,10,11.4,20,17.2,29.9c-19.6,11-39,22.4-58.4,33.8c-5.9-3.1-11.6-6.6-17.3-10
		C166.9,98.1,166.9,91.5,166.8,84.9z"/>
	<path d="M223.7,102.1c8.8,8.7,17.5,17.4,26.2,26.2c-8.8,8.6-17.4,17.4-26.1,26.2c-3.2-3.2-6.5-6.4-9.6-9.7
		c5.9-5.2,11.1-11.1,16.8-16.5c-5.5-5.7-11.3-11.1-16.8-16.9C217.6,108.5,220.5,105.2,223.7,102.1z"/>
	<path d="M5.9,128.1c8.9-8.5,17.5-17.4,26.1-26.1c3.3,3.2,6.5,6.5,9.8,9.6c-5.8,5.3-11,11.2-16.8,16.5c5.5,5.8,11.1,11.3,16.8,16.9
		c-3.3,3.1-6.5,6.4-9.7,9.5C23.5,145.6,14.6,137,5.9,128.1z"/>
	<path d="M112,179.8c5.9-3.1,11.4-6.6,17.2-9.9c5.6,3.5,11.5,6.5,17.1,10.1c-0.1,24.3-0.1,48.5,0,72.8c-11.4,0.1-22.9,0-34.3,0
		C112.2,228.6,112.2,204.2,112,179.8z"/>
	<path d="M56.8,204.8c4.5,0,9,0,13.5,0c-0.1,7.8,0.1,15.7-0.2,23.5c7.9,0.2,15.8,0.1,23.7,0c-0.1,4.5-0.1,9,0,13.4
		c-12.4,0.2-24.8,0.1-37.1,0.1C57,229.5,56.9,217.1,56.8,204.8z"/>
	<path d="M187.9,204.8c4.5,0,9-0.1,13.5,0.1c-0.2,12.3-0.1,24.7,0,37c-12.4,0-24.8,0-37.1,0c0.1-4.5,0.1-9,0-13.5
		c7.9,0,15.8,0,23.7,0C187.8,220.5,187.9,212.6,187.9,204.8z"/>
</g>
</svg>
