<?xml version="1.0" encoding="utf-8"?>
<!-- Generator: Adobe Illustrator 23.0.3, SVG Export Plug-In . SVG Version: 6.00 Build 0)  -->
<svg version="1.1" id="图层_1" xmlns="http://www.w3.org/2000/svg" xmlns:xlink="http://www.w3.org/1999/xlink" x="0px" y="0px"
	 viewBox="0 0 56 56" style="enable-background:new 0 0 56 56;" xml:space="preserve">
<g>
	<path d="M30.3,0h0.1C38.8,8.7,47.5,17.1,56,25.8v1.2L55.6,26c-3.3,3.8-7,7.1-10.5,10.7c-8.6-8.6-17.3-17.2-25.8-25.8
		C22.9,7.3,26.5,3.5,30.3,0z"/>
	<path d="M23.9,23.3c3.5,2.1,5.3,6.1,7.7,9.4c-2.9-0.1-4.6-4.1-5.5-6.5c-0.5,0.6-1,1.2-1.6,1.8c0.7,1.1,3.6,2.3,2.6,3.9l-0.8,0.6
		c-0.7-2.1-3.6-3.7-2.8-6c-0.4,0.2-1.2,0.6-1.6,0.8c-0.1-1.6,1.4-1.9,2.5-2.2L23.9,23.3z"/>
	<path d="M28.1,24.9c1.7,2,4.6,3.6,5.2,6.2C30.7,30.4,29.4,27.1,28.1,24.9z"/>
	<path d="M20.3,28.6c0.1-0.4,0.4-1,0.5-1.4c2.1,3.2,5.5,6.1,6.4,9.9C24.2,35.2,22.9,31.2,20.3,28.6z"/>
	<path d="M0,48.3C6.4,42,12.7,35.5,19.1,29.2c2,2.9,4.2,5.8,6.4,8.6c-5.7,6.3-12,12.1-17.9,18.2H7.5c-2.4-2.5-4.9-5.1-7.5-7.5V48.3z
		"/>
	<path d="M27.1,32c1.1,0,2.6,1.7,2,2.8C27.8,35,26.5,33.1,27.1,32z"/>
</g>
</svg>
