<?xml version="1.0" encoding="UTF-8" ?>
<!DOCTYPE svg PUBLIC "-//W3C//DTD SVG 1.1//EN" "http://www.w3.org/Graphics/SVG/1.1/DTD/svg11.dtd">
<svg width="256pt" height="256pt" viewBox="0 0 256 256" version="1.1" xmlns="http://www.w3.org/2000/svg">
<g id="#ffffffff">
</g>
<g id="#000000ff">
<path fill="#000000" opacity="1.00" d=" M 128.00 23.17 C 129.35 44.21 130.01 65.30 131.07 86.37 C 139.96 81.70 148.81 76.96 157.64 72.18 C 153.03 79.81 148.83 87.68 144.30 95.35 C 125.38 105.53 106.35 115.50 87.43 125.66 C 87.47 127.65 87.54 129.64 87.64 131.64 C 83.92 131.85 80.10 130.91 76.45 131.52 C 67.30 136.19 58.34 141.27 49.17 145.90 C 52.29 140.78 55.02 135.44 58.24 130.38 C 45.80 129.61 33.34 129.04 20.90 128.45 C 22.91 127.99 24.96 127.73 27.02 127.77 C 38.12 127.65 49.19 126.78 60.28 126.39 C 60.97 125.26 61.64 124.12 62.31 122.97 C 82.70 112.08 103.14 101.26 123.55 90.40 C 125.57 89.46 124.57 86.81 124.92 85.08 C 126.13 64.45 126.62 43.78 128.00 23.17 Z" />
<path fill="#000000" opacity="1.00" d=" M 37.31 168.27 C 100.29 134.72 163.36 101.32 226.30 67.70 C 222.59 74.49 218.59 81.10 214.87 87.89 C 214.21 88.97 213.69 90.19 212.70 91.02 C 149.49 124.71 86.19 158.23 23.01 191.96 C 26.68 185.29 30.57 178.74 34.27 172.08 C 35.13 170.71 35.75 169.00 37.31 168.27 Z" />
<path fill="#000000" opacity="1.00" d=" M 178.16 125.45 C 185.41 121.61 192.54 117.48 199.96 113.99 C 197.64 118.09 195.35 122.22 192.86 126.22 C 205.24 126.74 217.60 127.63 229.99 127.79 C 231.72 127.76 233.42 128.12 235.11 128.48 C 220.54 129.08 205.96 129.95 191.39 130.60 C 188.62 131.60 188.65 135.67 186.17 137.16 C 167.97 146.92 149.64 156.45 131.52 166.34 C 130.15 186.51 129.41 206.81 128.54 227.04 C 128.44 229.03 128.29 231.03 127.98 233.00 C 127.54 229.71 127.43 226.39 127.27 223.08 C 126.69 205.33 125.64 187.61 124.83 169.88 C 113.81 175.43 103.09 181.59 92.05 187.09 C 96.25 179.39 100.77 171.85 105.06 164.19 C 126.27 153.16 147.25 141.67 168.46 130.63 C 168.51 128.79 168.49 126.95 168.45 125.11 C 171.69 125.15 174.92 125.33 178.16 125.45 Z" />
</g>
</svg>
