<?xml version="1.0" encoding="utf-8"?>
<!-- Generator: Adobe Illustrator 23.0.3, SVG Export Plug-In . SVG Version: 6.00 Build 0)  -->
<svg version="1.1" id="图层_1" xmlns="http://www.w3.org/2000/svg" xmlns:xlink="http://www.w3.org/1999/xlink" x="0px" y="0px"
	 viewBox="0 0 256 256" style="enable-background:new 0 0 256 256;" xml:space="preserve">
<g>
	<path d="M128,5.2c1.6,24.6,2.4,49.3,3.6,74c10.4-5.5,20.8-11,31.1-16.6c-5.4,8.9-10.3,18.2-15.6,27.1
		c-22.2,11.9-44.4,23.6-66.6,35.5c0,2.3,0.1,4.7,0.2,7c-4.4,0.2-8.8-0.9-13.1-0.1c-10.7,5.5-21.2,11.4-31.9,16.8
		c3.7-6,6.9-12.3,10.6-18.2c-14.6-0.9-29.2-1.6-43.7-2.3c2.4-0.5,4.8-0.8,7.2-0.8c13-0.1,26-1.2,39-1.6c0.8-1.3,1.6-2.7,2.4-4
		c23.9-12.8,47.8-25.4,71.7-38.1c2.4-1.1,1.2-4.2,1.6-6.2C125.8,53.6,126.4,29.3,128,5.2z"/>
	<path d="M21.8,175.1c73.8-39.3,147.6-78.4,221.3-117.8c-4.3,8-9,15.7-13.4,23.6c-0.8,1.3-1.4,2.7-2.5,3.7
		C153.2,124.1,79,163.4,5,202.9c4.3-7.8,8.9-15.5,13.2-23.3C19.2,178,20,176,21.8,175.1z"/>
	<path d="M186.7,125c8.5-4.5,16.8-9.3,25.5-13.4c-2.7,4.8-5.4,9.6-8.3,14.3c14.5,0.6,29,1.7,43.5,1.8c2,0,4,0.4,6,0.8
		c-17.1,0.7-34.1,1.7-51.2,2.5c-3.2,1.2-3.2,5.9-6.1,7.7c-21.3,11.4-42.8,22.6-64,34.2c-1.6,23.6-2.5,47.4-3.5,71.1
		c-0.1,2.3-0.3,4.7-0.7,7c-0.5-3.9-0.6-7.7-0.8-11.6c-0.7-20.8-1.9-41.5-2.9-62.3c-12.9,6.5-25.5,13.7-38.4,20.2
		c4.9-9,10.2-17.8,15.2-26.8c24.8-12.9,49.4-26.4,74.3-39.3c0.1-2.2,0-4.3,0-6.5C179.2,124.6,183,124.9,186.7,125z"/>
</g>
</svg>
