<?xml version="1.0" encoding="utf-8"?>
<!-- Generator: Adobe Illustrator 23.0.3, SVG Export Plug-In . SVG Version: 6.00 Build 0)  -->
<svg version="1.1" id="图层_1" xmlns="http://www.w3.org/2000/svg" xmlns:xlink="http://www.w3.org/1999/xlink" x="0px" y="0px"
	 viewBox="0 0 61 61" style="enable-background:new 0 0 61 61;" xml:space="preserve">
<g>
	<path d="M29.2,9.7h2.7c3.1,0.9,5.7,3.4,5.8,6.8c0.3,1.6-1.4,2.5-2.8,2.4c-1.2-1.2-1.4-3-2-4.5c-2-1-5.5-0.8-5.6,2.1
		c-0.6,3,3.4,3.6,4.3,6c0.4,1.3,0.5,2.7,0.9,4c9,6,18.8,10.6,27.5,17v4c-1.8,1.3-3.4,2.8-5.5,3.8H5.4c-2.1-0.6-3.6-2.1-4.4-4.1v-2.6
		c0.6-1.5,1.4-3,2.9-3.8c8.2-5,16.6-9.7,24.8-14.7c-1.1-2.5-3.7-3.9-5-6.2C21.9,15.7,24.7,10.4,29.2,9.7 M5.9,44.5
		c-2.1,1,0.4,3.2,1.9,2.7c14.5,0.1,29.1,0,43.6,0c1.6,0.3,2.8-0.7,4-1.6c-8-5.9-17-10.2-25.4-15.4C22,35,13.7,39.5,5.9,44.5z"/>
</g>
</svg>
