<?xml version="1.0" encoding="utf-8"?>
<!-- Generator: Adobe Illustrator 23.0.3, SVG Export Plug-In . SVG Version: 6.00 Build 0)  -->
<svg version="1.1" id="图层_1" xmlns="http://www.w3.org/2000/svg" xmlns:xlink="http://www.w3.org/1999/xlink" x="0px" y="0px"
	 viewBox="0 0 256 256" style="enable-background:new 0 0 256 256;" xml:space="preserve">
<g>
	<path d="M168.6,3.7c5.5-0.7,11-0.1,16.5-0.2c22,0,44,0,65.9,0c0,23.3,0,46.6,0,69.9c0,4.2,0.4,8.5-0.1,12.7
		c-4-23.6-7.7-47.3-11.5-70.9C215.8,11.5,192.2,7.3,168.6,3.7z"/>
	<path d="M104.5,15.4c2.4-1.3,4.6-3.4,7.3-4c27.4,6.7,54.7,13.7,82.1,20.3c3.8,3.7,7.5,7.4,11.1,11.2c4.9-2,10.1-3.6,14.9-5.9
		c-1.7,5.1-3.7,10.1-5.7,15.1c3.7,3.8,7.5,7.5,11.2,11.3c6.7,27.7,13.6,55.4,20.5,83.1c-8.2,13-16.5,26-24.4,39.2
		c-2.4-2.4-4.9-4.9-7.3-7.3c2-3,4-5.9,5.8-9c-36.9,0.7-73.8,0.4-110.7,0.7c-1.7-0.2-2.7,1.3-3.8,2.2c-7.7,7.7-15.3,15.6-23.2,23.1
		c7.9-0.7,15.7-1.2,23.6-2c-0.5,6.2-1.1,12.4-1.4,18.7c-16.2,1.6-32.5,2.5-48.7,4.1c-13.1,12.4-25.6,25.5-38.3,38.4
		c-4.8-4.5-9.4-9.3-14.1-14C15.9,228.6,27.8,216,40.1,204c2.2-1.5,1.8-4.5,2.2-6.8c1-14.7,2.4-29.4,3.4-44.2
		c6.2-0.4,12.4-0.8,18.6-1.5c-0.7,7.7-0.9,15.5-2.2,23.1c0.6-0.4,1.8-1.2,2.4-1.5c7.6-8.2,15.7-15.9,23.6-23.8
		c0.7-37.9,1.6-75.8,2.6-113.7c-3.8,2.3-7.6,4.8-11.4,7.1c-2.4-2.4-4.8-4.8-7.1-7.3C83.2,29.2,93.6,22,104.5,15.4 M94,33.8
		c-0.4,43.2-1.8,86.3-2.4,129.5c-8.1,8.3-16.4,16.5-24.6,24.8c-2.6,2.7-6.1,4.9-6.7,8.9c0.8-0.1,2.4-0.3,3.2-0.4
		c10.5-10,20.3-20.6,30.8-30.6c42.6,0.1,85.1-0.2,127.6-0.1c4.2-6.8,9.2-13.4,12.4-20.5c-5.5-21.5-10.3-43.2-16.2-64.6
		c-2.4-0.7-4.8-1.4-7.1-2.3c-7.8,2.8-15.4,6-23.1,8.9c-2.4,0.7-4.1,2.7-5.8,4.4c-3.7,3.8-7.6,7.6-11.2,11.4
		c-1.1-0.8-2.1-1.5-3.2-2.3c-19,19.6-38.6,38.7-57.7,58.3c-4.2,0.6-8.5,0.8-12.7,1.2c0.3-4.2,0.7-8.3,1-12.5
		c19.5-19.5,38.8-39.2,58.5-58.6c-0.6-0.6-1.9-1.9-2.6-2.5c4.9-5.3,10.4-10,15.1-15.5c3.4-8.2,6.4-16.6,9.9-24.8
		c-1.6-2.9-1.1-8.2-5.3-8.5c-20.7-5.1-41.5-10.3-62.2-15.5C105.6,26.3,99.7,30,94,33.8z"/>
	<path d="M74.5,64.1c-0.2,5.2,0.2,10.3,0.7,15.5c0.8,18.9,1.5,37.8,2.5,56.7c-2.1,0-4.3,0-6.4,0c0.7-16.8,1.5-33.6,2.1-50.4
		C73.7,78.7,73.2,71.3,74.5,64.1z"/>
	<path d="M121.3,180.4c24,1.3,48,1.8,72,3c-12.4,1.4-25,1.2-37.4,1.8c-11.5,0.4-23,1.1-34.6,1.5
		C121.4,184.6,121.3,182.5,121.3,180.4z"/>
</g>
</svg>
