<?xml version="1.0" encoding="UTF-8" ?>
<!DOCTYPE svg PUBLIC "-//W3C//DTD SVG 1.1//EN" "http://www.w3.org/Graphics/SVG/1.1/DTD/svg11.dtd">
<svg width="256pt" height="256pt" viewBox="0 0 256 256" version="1.1" xmlns="http://www.w3.org/2000/svg">
<g id="#ffffffff">
</g>
<g id="#000000ff">
<path fill="#000000" opacity="1.00" d=" M 163.96 29.93 C 168.30 29.38 172.67 29.86 177.03 29.80 C 194.40 29.78 211.78 29.81 229.15 29.78 C 229.16 48.20 229.14 66.62 229.16 85.05 C 229.14 88.39 229.49 91.75 229.05 95.09 C 225.88 76.43 222.94 57.73 219.93 39.05 C 201.26 36.08 182.64 32.79 163.96 29.93 Z" />
<path fill="#000000" opacity="1.00" d=" M 113.28 39.20 C 115.17 38.14 116.88 36.55 119.02 36.05 C 140.66 41.35 162.25 46.86 183.90 52.11 C 186.88 55.00 189.84 57.93 192.71 60.94 C 196.62 59.34 200.67 58.07 204.50 56.25 C 203.12 60.27 201.54 64.21 200.03 68.18 C 202.99 71.15 205.99 74.08 208.90 77.10 C 214.19 99.03 219.66 120.91 225.09 142.80 C 218.61 153.08 212.08 163.33 205.84 173.75 C 203.92 171.82 201.97 169.91 200.03 167.99 C 201.61 165.65 203.16 163.29 204.59 160.86 C 175.43 161.39 146.25 161.14 117.09 161.40 C 115.76 161.21 114.96 162.41 114.10 163.17 C 108.02 169.27 102.02 175.47 95.79 181.43 C 102.01 180.87 108.24 180.47 114.45 179.86 C 114.08 184.78 113.56 189.69 113.33 194.62 C 100.52 195.85 87.65 196.61 74.84 197.86 C 64.48 207.67 54.58 218.05 44.53 228.21 C 40.70 224.64 37.10 220.83 33.39 217.14 C 43.26 207.73 52.63 197.80 62.40 188.29 C 64.13 187.08 63.82 184.76 64.10 182.94 C 64.90 171.29 65.99 159.66 66.81 148.01 C 71.72 147.68 76.63 147.40 81.53 146.85 C 80.99 152.94 80.84 159.09 79.79 165.13 C 80.26 164.82 81.19 164.22 81.66 163.92 C 87.67 157.46 94.04 151.33 100.28 145.09 C 100.86 115.14 101.56 85.19 102.34 55.24 C 99.32 57.09 96.37 59.04 93.34 60.87 C 91.44 58.96 89.53 57.05 87.70 55.07 C 96.41 50.09 104.70 44.41 113.28 39.20 M 104.97 53.73 C 104.66 87.86 103.51 121.99 103.10 156.12 C 96.68 162.71 90.11 169.14 83.66 175.69 C 81.64 177.84 78.82 179.60 78.34 182.75 C 78.97 182.68 80.22 182.54 80.85 182.47 C 89.13 174.59 96.90 166.15 105.20 158.29 C 138.84 158.39 172.48 158.14 206.11 158.22 C 209.41 152.86 213.39 147.65 215.93 141.98 C 211.55 124.98 207.79 107.80 203.10 90.89 C 201.20 90.36 199.32 89.76 197.46 89.10 C 191.31 91.28 185.32 93.85 179.21 96.14 C 177.31 96.71 176.00 98.26 174.62 99.59 C 171.67 102.62 168.63 105.57 165.73 108.64 C 164.89 108.04 164.06 107.44 163.22 106.83 C 148.18 122.36 132.68 137.43 117.57 152.89 C 114.22 153.34 110.86 153.54 107.50 153.85 C 107.74 150.56 108.06 147.29 108.28 144.00 C 123.68 128.57 138.99 113.05 154.49 97.70 C 153.98 97.21 152.97 96.23 152.47 95.74 C 156.37 91.58 160.68 87.80 164.38 83.47 C 167.09 76.99 169.42 70.34 172.18 63.88 C 170.94 61.61 171.28 57.40 167.97 57.17 C 151.57 53.13 135.20 49.00 118.82 44.93 C 114.16 47.80 109.51 50.69 104.97 53.73 Z" />
<path fill="#000000" opacity="1.00" d=" M 89.53 77.65 C 89.35 81.74 89.65 85.83 90.08 89.91 C 90.71 104.85 91.23 119.81 92.05 134.75 C 90.36 134.77 88.66 134.78 86.97 134.78 C 87.52 121.51 88.15 108.25 88.65 94.97 C 88.94 89.20 88.51 83.37 89.53 77.65 Z" />
<path fill="#000000" opacity="1.00" d=" M 126.60 169.60 C 145.57 170.59 164.56 171.03 183.53 171.99 C 173.71 173.08 163.80 172.95 153.94 173.45 C 144.83 173.77 135.73 174.31 126.61 174.63 C 126.61 172.95 126.60 171.27 126.60 169.60 Z" />
</g>
</svg>
