<?xml version="1.0" encoding="utf-8"?>
<!-- Generator: Adobe Illustrator 23.0.3, SVG Export Plug-In . SVG Version: 6.00 Build 0)  -->
<svg version="1.1" id="图层_1" xmlns="http://www.w3.org/2000/svg" xmlns:xlink="http://www.w3.org/1999/xlink" x="0px" y="0px"
	 viewBox="0 0 32 32" style="enable-background:new 0 0 32 32;" xml:space="preserve">
<path d="M11.8,23.1v-11V3.3c0-1.1-0.9-2.1-2.1-2.1S7.6,2.1,7.6,3.3v19.9l-3.8-3.7c-0.8-0.8-2.1-0.8-2.9,0c-0.8,0.8-0.8,2.1,0,2.9
	l7.3,7.3c0.8,0.8,2.1,0.8,2.9,0c0,0,0.6-0.6,0.6-1.4C11.8,27.1,11.8,23.1,11.8,23.1z"/>
<path d="M29.8,1.6H15c-1.1,0-1.9,0.9-1.9,1.9v0.3c0,1.1,0.9,1.9,1.9,1.9h14.8c1.1,0,1.9-0.9,1.9-1.9V3.5C31.7,2.4,30.9,1.6,29.8,1.6
	z"/>
<path d="M27.2,7.6H15c-1.1,0-1.9,0.9-1.9,1.9v0.3c0,1.1,0.9,1.9,1.9,1.9h12.2c1.1,0,1.9-0.9,1.9-1.9V9.5C29.1,8.5,28.3,7.6,27.2,7.6
	z"/>
<path d="M24.4,13.6H15c-1.1,0-1.9,0.9-1.9,1.9v0.3c0,1.1,0.9,1.9,1.9,1.9h9.4c1.1,0,1.9-0.9,1.9-1.9v-0.3
	C26.3,14.5,25.5,13.6,24.4,13.6z"/>
<path d="M21,19.7h-6c-1.1,0-1.9,0.9-1.9,1.9v0.3c0,1.1,0.9,1.9,1.9,1.9h6c1.1,0,1.9-0.9,1.9-1.9v-0.3C22.9,20.5,22.1,19.7,21,19.7z"
	/>
<path d="M18.1,25.7H15c-1.1,0-1.9,0.9-1.9,1.9v0.3c0,1.1,0.9,1.9,1.9,1.9h3.1c1.1,0,1.9-0.9,1.9-1.9v-0.3
	C20,26.6,19.2,25.7,18.1,25.7z"/>
</svg>
