<?xml version="1.0" encoding="UTF-8" ?>
<!DOCTYPE svg PUBLIC "-//W3C//DTD SVG 1.1//EN" "http://www.w3.org/Graphics/SVG/1.1/DTD/svg11.dtd">
<svg width="256pt" height="256pt" viewBox="0 0 256 256" version="1.1" xmlns="http://www.w3.org/2000/svg">
<g id="#ffffffff">
</g>
<g id="#000000ff">
<path fill="#000000" opacity="1.00" d=" M 123.98 45.03 C 124.85 37.28 125.14 29.47 126.01 21.72 C 127.49 29.68 127.29 37.84 128.51 45.84 C 145.88 80.33 163.30 114.80 180.73 149.27 C 182.84 153.31 184.73 157.47 187.05 161.40 C 168.71 161.50 150.36 161.33 132.02 161.49 C 135.26 155.73 138.00 149.72 141.08 143.88 C 147.50 143.86 153.92 143.90 160.34 143.86 C 148.75 121.43 137.75 98.66 126.00 76.35 C 118.23 92.09 110.44 107.85 102.21 123.37 C 111.52 123.36 120.83 123.36 130.14 123.37 C 126.84 129.08 124.34 135.22 121.00 140.91 C 105.93 140.77 90.85 140.91 75.77 140.83 C 91.47 110.11 106.92 79.25 122.54 48.48 C 123.07 47.36 123.78 46.28 123.98 45.03 Z" />
<path fill="#000000" opacity="1.00" d=" M 67.20 158.32 C 73.07 158.45 78.94 158.32 84.82 158.39 C 78.71 169.71 73.32 181.40 67.23 192.73 C 106.52 192.98 145.81 192.81 185.10 192.82 C 182.71 188.17 180.14 183.58 178.13 178.76 C 183.99 179.03 189.86 178.82 195.73 178.92 C 200.17 187.64 204.40 196.48 209.04 205.08 C 212.19 208.24 215.88 210.83 219.23 213.78 C 221.79 216.16 225.08 217.75 227.16 220.61 C 220.41 217.25 213.85 213.26 206.88 210.47 C 153.92 210.31 100.96 210.48 48.00 210.38 C 44.03 210.01 40.92 213.02 37.43 214.43 C 33.25 216.24 29.56 219.11 25.21 220.51 C 30.59 216.11 35.94 211.68 41.34 207.30 C 43.93 205.29 44.84 202.00 46.35 199.22 C 53.38 185.63 59.99 171.82 67.20 158.32 Z" />
</g>
</svg>
