<?xml version="1.0" encoding="utf-8"?>
<!-- Generator: Adobe Illustrator 23.0.3, SVG Export Plug-In . SVG Version: 6.00 Build 0)  -->
<svg version="1.1" id="图层_1" xmlns="http://www.w3.org/2000/svg" xmlns:xlink="http://www.w3.org/1999/xlink" x="0px" y="0px"
	 viewBox="0 0 256 256" style="enable-background:new 0 0 256 256;" xml:space="preserve">
<g>
	<path d="M125.4,33.7c1.1-9.6,1.4-19.3,2.5-28.9c1.8,9.9,1.6,20,3.1,29.9c21.5,42.8,43.2,85.5,64.8,128.3c2.6,5,5,10.2,7.8,15
		c-22.8,0.1-45.5-0.1-68.3,0.1c4-7.1,7.4-14.6,11.2-21.8c8,0,15.9,0,23.9,0c-14.4-27.8-28-56.1-42.6-83.7
		c-9.6,19.5-19.3,39.1-29.5,58.3c11.5,0,23.1,0,34.6,0c-4.1,7.1-7.2,14.7-11.3,21.8c-18.7-0.2-37.4,0-56.1-0.1
		c19.5-38.1,38.6-76.4,58-114.6C124.3,36.6,125.2,35.3,125.4,33.7z"/>
	<path d="M55,174.3c7.3,0.2,14.6,0,21.9,0.1c-7.6,14-14.3,28.5-21.8,42.6c48.7,0.3,97.5,0.1,146.2,0.1c-3-5.8-6.2-11.5-8.6-17.4
		c7.3,0.3,14.6,0.1,21.8,0.2c5.5,10.8,10.8,21.8,16.5,32.5c3.9,3.9,8.5,7.1,12.6,10.8c3.2,3,7.3,4.9,9.8,8.5
		c-8.4-4.2-16.5-9.1-25.2-12.6c-65.7-0.2-131.4,0-197.1-0.1c-4.9-0.5-8.8,3.3-13.1,5c-5.2,2.2-9.8,5.8-15.2,7.5
		c6.7-5.5,13.3-11,20-16.4c3.2-2.5,4.3-6.6,6.2-10C37.9,208.1,46.1,191,55,174.3z"/>
</g>
</svg>
