<?xml version="1.0" encoding="utf-8"?>
<!-- Generator: Adobe Illustrator 23.0.3, SVG Export Plug-In . SVG Version: 6.00 Build 0)  -->
<svg version="1.1" id="图层_1" xmlns="http://www.w3.org/2000/svg" xmlns:xlink="http://www.w3.org/1999/xlink" x="0px" y="0px"
	 viewBox="0 0 60 60" style="enable-background:new 0 0 60 60;" xml:space="preserve">
<g>
	<path d="M21.2,6.1c3.1-1.8,6.4-3.3,8.8-6c7.5,6.4,16.8,10.2,25,15.7v29.6c-8.3,4.9-16.6,9.9-25,14.7c-8.4-4.9-16.8-9.7-25-14.8
		V15.7C10.4,12.5,15.8,9.3,21.2,6.1 M8.3,17.6c-0.1,8.6-0.1,17.2,0,25.8c7.3,4.2,14.5,8.5,21.8,12.8c7.3-4.2,14.5-8.6,21.8-12.8
		c0.1-8.6,0.1-17.3,0-25.9C44.4,13.4,37.2,9.1,30,4.8C22.8,9.1,15.5,13.4,8.3,17.6z"/>
	<path d="M11.3,19.3c6.3-3.6,12.5-7.3,18.8-11c5.7,3.3,11.3,6.7,17,10c1.5,0.6,1.6,2.4,2.2,3.7c-0.9-0.4-2.6-1.1-3.5-1.5
		c1,1.3,2.9,3.8,3.8,5c-1.1-0.9-3.2-2.6-4.2-3.4c-0.4,0-1.2,0.1-1.6,0.1c1.8,1.8,3.6,3.6,5.2,5.7c-0.9,0.2-1.7,0.5-2.6,0.7
		c2.4,0.7,3,2.6,1.5,4.4c0.3,0.5,1,1.6,1.3,2.2c-1.4-0.9-2.7-2-3.9-3c0.7-0.6,1.4-1.3,2.1-1.9c-0.8-0.7-2.3-2-3.1-2.7l-1.1,0.2
		c0-0.3-0.1-0.8-0.2-1.1c-0.2-0.2-0.7-0.6-0.9-0.8c-0.1-0.1-0.4-0.4-0.5-0.5l0,0.4l0.5,0.1l0.3,0.7l0.7,0l-0.3,0.5l0.4,0.5l2.3,3.4
		c-2.9-1.3-4.4-4.2-7-5.8c0.4,1.4,0.4,2.8-1.1,3.5c4,4.3,8.7,8.1,12.1,12.9c-3.3-1.5-5.4-4.5-7.7-7.2c-0.4,0.8-0.8,1.7-1.3,2.6
		c-0.8-1-1.6-2-2.5-2.9c-2.6,1.9-5.4,3.4-8.2,5c-0.3,0.2-0.8,0.7-1.1,1c-1.7-2.4-4.3-4.8-7.4-4.8c0.2,1.6,0.5,3.3,0.7,4.9
		c0.3-0.1,0.9-0.3,1.1-0.4c0-0.6,0.1-1.9,0.1-2.5c2.3-0.6,0.7,5,2,5.8c0.7-1.6,1.3-3.4,0.3-5l1.2,0.1c0.6,2.7,1.2,5.4,2.1,8
		c0.1-1.7,0.2-3.3,0.4-4.9c2.1,0.5-0.2,4-0.2,5.7c0.5,2,0.9,4,1.3,6c-0.9-1.3-2.1-2.3-3.6-2.9c-0.3-0.2-1-0.6-1.4-0.8l-0.5,0.3
		c-1.7,0.8-1.5-2.8-1.8-3.5c-0.4-0.1-1.1-0.3-1.5-0.4l0.1,2.9c-1.9-3.1-2.3-6.8-3.3-10.2l1.7,0.3v3.4c1.3-1.4,1.1-3.2,0.5-4.9
		c-1.6,0.5-3.2,1.2-4.3,2.5c0.4,0,1.1,0.1,1.5,0.1c0.9,1.4,0.8,2.5-0.3,3.2c-0.3-0.5-0.9-1.5-1.1-2l-0.7-0.5
		c0.2,1.2,0.4,3.5,0.6,4.7c-1.1-1.7-1.9-3.6-2.9-5.4c0.1,1,0.1,2.9,0.2,3.9c-0.5-0.7-1.6-2-2.1-2.7C11.1,33.6,11.4,26.4,11.3,19.3
		 M23,22.2c2.2,2.5,4.6,4.9,6.9,7.3c2.3-2.3,4.6-4.6,7-6.9c-2.2-2.6-4.6-5-6.9-7.4C27.7,17.6,25.4,20,23,22.2 M43.5,24.3
		c0.2,0.2,0.6,0.6,0.8,0.8C44,24.9,43.7,24.5,43.5,24.3C42.7,23.5,42.7,23.5,43.5,24.3 M44.2,25.1l0.1,0.8l0.8,0.2L45,25.3
		L44.2,25.1 M45.1,26.1C45.7,26.7,45.7,26.7,45.1,26.1 M38.2,32.1c0.1,0.4,0.2,1.2,0.3,1.7C40.6,35,40.1,30.7,38.2,32.1 M22.8,42.2
		c0.6,1.7,0.9,3.4,1.3,5.2c1.5,0.5,2.7,1.4,3.8,2.3c0.9-2.5-1.4-5.3-1.1-8c-0.9,1.6-0.4,3.8-1.5,5.1c-0.7-2.2-1.2-4.4-1.4-6.6
		C23.5,40.9,23.2,41.5,22.8,42.2 M21.8,44.7c0.1-0.4,0.3-1.2,0.3-1.6C21,40.5,19.6,45,21.8,44.7z"/>
	<path d="M26,22.8c0.4-2,2.8-3.2,4-4.8c1.5,1.5,2.9,3,4.4,4.6c-1.5,1.4-2.9,2.9-4.4,4.4C28.7,25.5,27.3,24.3,26,22.8z"/>
	<path d="M41.7,30.4C41.3,30,41.3,30,41.7,30.4z"/>
	<path d="M41.7,30.4c1.6,0.4,2.7,2.1,3.6,3.3l0,0.5c-1.7-0.1-2.8-2-3.7-3.3L41.7,30.4z"/>
	<path d="M45.4,34.3c0.2,0.2,0.5,0.5,0.7,0.7C45.9,34.8,45.5,34.5,45.4,34.3z"/>
	<path d="M46,35c0.2,0.2,0.5,0.5,0.7,0.7C46.6,35.5,46.2,35.2,46,35z"/>
	<path d="M46.7,35.7c1.4-0.1,2,0.6,1.9,2c-0.5-0.3-1.5-0.9-2-1.2L46.7,35.7z"/>
	<path d="M17.4,44c0.5,0.1,1.5,0.3,2,0.3C19.8,46.4,16.7,45.5,17.4,44z"/>
</g>
</svg>
