<?xml version="1.0" encoding="utf-8"?>
<!-- Generator: Adobe Illustrator 23.0.3, SVG Export Plug-In . SVG Version: 6.00 Build 0)  -->
<svg version="1.1" id="图层_1" xmlns="http://www.w3.org/2000/svg" xmlns:xlink="http://www.w3.org/1999/xlink" x="0px" y="0px"
	 viewBox="0 0 256 256" style="enable-background:new 0 0 256 256;" xml:space="preserve">
<g>
	<path d="M3.3,2.3c38.5-0.1,76.9,0,115.3-0.1c-0.2,28.1,0.1,56.1-0.1,84.2c5,4.7,9.7,9.7,14.6,14.5c1.8,1.7,3.1,4.1,5.6,4.9
		c-0.3-1.3-0.5-2.6-0.6-4c0-33.2,0-66.4,0-99.5c38.4-0.1,76.9,0,115.3,0c0,71.6,0,143.3,0,214.9c0.1,12.1-0.3,24.1,0.2,36.2
		c-37.8,0.1-75.7-0.1-113.5,0.1c0-7.8-0.4-15.6,0.2-23.3c12.3,0.5,24.6-0.8,36.8,1c18.1,0,36.1,0,54.2,0
		c-0.4-63.2-0.1-126.3-0.2-189.5c0.1-5.6-0.3-11.2,0.3-16.8c-22.3-0.7-44.7-0.1-67-0.3c0.2,6.4,0,12.8,0.1,19.1
		c15.2,0,30.3,0.1,45.5-0.1c0.6,49.4-0.2,98.8,0.4,148.2c-40.1-39.8-79.8-80.1-119.8-120c-1-15.7,0-31.6-0.5-47.3
		c-6.7,0.1-13.3,0.1-20,0.1c0.5,15,0.1,30.1,0.3,45.1c-15,0-30.1,0-45.1,0c0.2,53.5-0.1,107.1,0.2,160.6c13.8-0.1,27.5-0.1,41.3,0
		c0.1-6.4,0.1-12.9,0-19.3c-6.8,0.2-13.7,0.1-20.5,0.1c0.1-40.5,0-81,0-121.5c8.5,0,16.9,0.1,25.4,0
		c40.5,40.4,80.9,81.1,121.3,121.6c-17.7-0.2-35.4,0-53-0.1c0.2-12.9-0.1-25.9,0.2-38.8c-6.6-6.6-13-13.4-19.9-19.7
		c0.6,33.6-0.2,67.2,0.4,100.7c-39.2,0.3-78.5,0.2-117.7,0c0.1-1.1,0.2-3.4,0.3-4.5C3.3,166.6,3.3,84.4,3.3,2.3 M25.4,24.5
		c0.3,11.8,0,23.7,0.1,35.5c11.8-0.1,23.6-0.1,35.4,0c0-11.9-0.1-23.7,0-35.6C49.1,24.6,37.2,24.4,25.4,24.5z"/>
</g>
</svg>
