<?xml version="1.0" encoding="UTF-8" ?>
<!DOCTYPE svg PUBLIC "-//W3C//DTD SVG 1.1//EN" "http://www.w3.org/Graphics/SVG/1.1/DTD/svg11.dtd">
<svg width="256pt" height="256pt" viewBox="0 0 256 256" version="1.1" xmlns="http://www.w3.org/2000/svg">
<g id="#ffffffff">
</g>
<g id="#000000ff">
<path fill="#000000" opacity="1.00" d=" M 37.18 36.28 C 65.21 36.23 93.23 36.31 121.26 36.24 C 121.14 56.71 121.30 77.17 121.18 97.64 C 124.81 101.08 128.25 104.72 131.83 108.20 C 133.17 109.42 134.07 111.19 135.90 111.76 C 135.70 110.80 135.55 109.83 135.47 108.86 C 135.49 84.67 135.50 60.48 135.46 36.29 C 163.48 36.25 191.50 36.26 219.52 36.29 C 219.53 88.51 219.52 140.74 219.53 192.97 C 219.62 201.76 219.32 210.56 219.69 219.34 C 192.11 219.39 164.53 219.27 136.96 219.40 C 136.99 213.75 136.66 208.05 137.11 202.42 C 146.05 202.77 155.07 201.82 163.93 203.13 C 177.10 203.10 190.28 203.15 203.46 203.11 C 203.20 157.07 203.42 111.01 203.35 64.97 C 203.42 60.89 203.16 56.79 203.56 52.72 C 187.30 52.21 170.99 52.66 154.71 52.49 C 154.86 57.14 154.74 61.79 154.77 66.44 C 165.83 66.44 176.89 66.51 187.95 66.40 C 188.38 102.40 187.79 138.44 188.25 174.44 C 159.01 145.42 130.08 116.07 100.93 86.96 C 100.21 75.51 100.92 63.94 100.57 52.45 C 95.71 52.54 90.84 52.49 85.98 52.52 C 86.38 63.48 86.02 74.46 86.18 85.42 C 75.22 85.45 64.26 85.40 53.30 85.44 C 53.45 124.46 53.24 163.49 53.41 202.51 C 63.45 202.45 73.49 202.41 83.53 202.52 C 83.59 197.82 83.57 193.12 83.53 188.42 C 78.56 188.57 73.57 188.50 68.60 188.47 C 68.65 158.95 68.60 129.43 68.62 99.91 C 74.79 99.93 80.97 99.96 87.14 99.90 C 116.70 129.35 146.10 158.99 175.55 188.56 C 162.66 188.41 149.77 188.59 136.88 188.46 C 136.99 179.03 136.80 169.60 136.99 160.17 C 132.16 155.39 127.52 150.39 122.51 145.80 C 122.92 170.27 122.40 194.76 122.77 219.24 C 94.18 219.44 65.57 219.38 36.98 219.27 C 37.03 218.45 37.13 216.80 37.18 215.98 C 37.18 156.08 37.19 96.18 37.18 36.28 M 53.26 52.53 C 53.47 61.16 53.26 69.81 53.36 78.44 C 61.97 78.38 70.58 78.39 79.19 78.44 C 79.16 69.79 79.15 61.14 79.19 52.49 C 70.55 52.55 61.91 52.46 53.26 52.53 Z" />
</g>
</svg>
