<?xml version="1.0" encoding="UTF-8" ?>
<!DOCTYPE svg PUBLIC "-//W3C//DTD SVG 1.1//EN" "http://www.w3.org/Graphics/SVG/1.1/DTD/svg11.dtd">
<svg width="256pt" height="256pt" viewBox="0 0 256 256" version="1.1" xmlns="http://www.w3.org/2000/svg">
<g id="#ffffffff">
</g>
<g id="#000000ff">
<path fill="#000000" opacity="1.00" d=" M 37.81 28.29 C 48.08 36.27 58.10 44.61 68.41 52.57 C 66.23 54.68 64.05 56.79 61.99 59.01 C 54.10 48.64 45.75 38.61 37.81 28.29 Z" />
<path fill="#000000" opacity="1.00" d=" M 193.09 52.66 C 203.20 44.46 213.45 36.42 223.59 28.25 C 215.65 38.57 207.50 48.74 199.37 58.92 C 197.38 56.73 195.30 54.62 193.09 52.66 Z" />
<path fill="#000000" opacity="1.00" d=" M 104.20 48.32 C 113.01 42.91 121.56 37.02 130.17 31.27 C 137.84 36.48 145.59 41.55 153.26 46.75 C 154.41 47.39 155.46 48.53 156.89 48.39 C 163.88 48.50 170.87 48.33 177.86 48.48 C 177.62 52.57 177.68 56.67 177.72 60.77 C 186.52 64.40 195.25 68.17 203.97 72.00 C 201.96 104.70 200.04 137.40 198.21 170.10 C 176.05 187.99 153.66 205.61 131.41 223.40 C 130.39 224.85 129.18 223.08 128.29 222.55 C 106.16 204.98 83.69 187.82 61.65 170.16 C 59.39 137.43 57.46 104.66 55.28 71.92 C 63.72 68.19 72.18 64.46 80.61 60.69 C 80.61 56.62 80.66 52.55 80.48 48.48 C 88.38 48.28 96.30 48.59 104.20 48.32 M 107.61 58.67 C 101.14 58.67 94.67 58.68 88.19 58.69 C 88.33 62.13 88.32 65.56 88.30 69.00 C 80.58 72.16 72.99 75.60 65.27 78.75 C 66.99 107.49 68.39 136.25 70.21 164.96 C 90.12 180.92 110.42 196.44 130.38 212.34 C 150.44 196.63 170.39 180.78 190.40 165.02 C 191.55 136.28 192.74 107.55 194.00 78.82 C 185.99 75.57 178.04 72.18 170.03 68.94 C 170.11 65.52 170.09 62.10 170.09 58.68 C 164.22 58.67 158.35 58.68 152.48 58.67 C 145.21 53.54 137.62 48.88 130.41 43.68 C 122.72 48.53 115.18 53.62 107.61 58.67 Z" />
<path fill="#000000" opacity="1.00" d=" M 112.79 64.72 C 117.31 61.30 121.89 57.96 126.40 54.51 C 126.03 75.80 126.49 97.10 126.17 118.39 C 128.84 118.41 131.51 118.41 134.19 118.42 C 134.11 97.17 134.32 75.92 134.07 54.67 C 139.46 58.36 144.32 62.79 149.83 66.29 C 155.42 66.56 161.02 66.23 166.61 66.44 C 166.82 83.02 165.14 99.53 164.34 116.07 C 163.62 126.28 163.19 136.51 162.42 146.71 C 161.67 147.83 160.41 148.50 159.41 149.38 C 149.61 156.75 139.92 164.27 130.10 171.62 C 119.35 162.87 108.18 154.65 97.38 145.97 C 95.83 123.30 94.03 100.65 92.43 77.99 C 92.27 74.14 92.41 70.29 92.23 66.45 C 97.84 66.28 103.45 66.44 109.06 66.38 C 110.57 66.62 111.65 65.47 112.79 64.72 Z" />
<path fill="#000000" opacity="1.00" d=" M 73.98 84.97 C 78.44 83.02 82.87 80.98 87.32 78.98 C 88.67 102.27 90.22 125.56 91.66 148.85 C 103.86 158.13 116.08 167.39 128.21 176.76 C 129.69 176.55 131.38 176.81 132.58 175.71 C 144.81 166.55 156.90 157.19 169.08 147.96 C 170.31 124.88 171.91 101.83 173.12 78.76 C 177.53 80.92 181.92 83.13 186.39 85.19 C 185.02 110.05 183.79 134.91 182.34 159.76 C 165.31 173.70 147.82 187.14 130.57 200.83 C 113.14 187.18 95.75 173.49 78.37 159.77 C 77.02 134.83 75.51 109.90 73.98 84.97 Z" />
<path fill="#000000" opacity="1.00" d=" M 38.07 216.98 C 46.07 206.92 54.10 196.88 61.93 186.69 C 64.05 188.87 66.20 191.01 68.44 193.05 C 60.95 198.96 53.50 204.93 46.03 210.86 C 43.39 212.92 41.00 215.32 38.07 216.98 Z" />
<path fill="#000000" opacity="1.00" d=" M 199.37 186.74 C 207.49 196.81 215.37 207.06 223.54 217.08 C 213.11 209.43 203.29 200.93 193.00 193.07 C 195.23 191.06 197.33 188.93 199.37 186.74 Z" />
</g>
</svg>
