<?xml version="1.0" encoding="utf-8"?>
<!-- Generator: Adobe Illustrator 23.0.3, SVG Export Plug-In . SVG Version: 6.00 Build 0)  -->
<svg version="1.1" id="图层_1" xmlns="http://www.w3.org/2000/svg" xmlns:xlink="http://www.w3.org/1999/xlink" x="0px" y="0px"
	 viewBox="0 0 256 256" style="enable-background:new 0 0 256 256;" xml:space="preserve">
<g>
	<path d="M10.1,1.1c13.3,10.4,26.3,21.2,39.7,31.5c-2.8,2.7-5.7,5.5-8.3,8.4C31.2,27.5,20.4,14.5,10.1,1.1z"/>
	<path d="M211.7,32.7c13.1-10.6,26.4-21.1,39.6-31.7c-10.3,13.4-20.9,26.6-31.5,39.8C217.3,38,214.6,35.3,211.7,32.7z"/>
	<path d="M96.3,27.1c11.4-7,22.5-14.7,33.7-22.1c10,6.8,20,13.4,30,20.1c1.5,0.8,2.9,2.3,4.7,2.1c9.1,0.1,18.2-0.1,27.2,0.1
		c-0.3,5.3-0.2,10.6-0.2,16c11.4,4.7,22.8,9.6,34.1,14.6c-2.6,42.5-5.1,84.9-7.5,127.4c-28.8,23.2-57.9,46.1-86.8,69.2
		c-1.3,1.9-2.9-0.4-4.1-1.1c-28.7-22.8-57.9-45.1-86.5-68c-2.9-42.5-5.4-85.1-8.3-127.6c11-4.8,21.9-9.7,32.9-14.6
		c0-5.3,0.1-10.6-0.2-15.9C75.7,27,86,27.4,96.3,27.1 M100.7,40.5c-8.4,0-16.8,0-25.2,0c0.2,4.5,0.2,8.9,0.1,13.4
		c-10,4.1-19.9,8.6-29.9,12.7c2.2,37.3,4.1,74.7,6.4,112c25.9,20.7,52.2,40.9,78.1,61.5c26.1-20.4,52-41,77.9-61.5
		c1.5-37.3,3-74.6,4.7-111.9c-10.4-4.2-20.7-8.6-31.1-12.8c0.1-4.4,0.1-8.9,0.1-13.3c-7.6,0-15.2,0-22.9,0
		c-9.4-6.7-19.3-12.7-28.7-19.5C120.3,27.4,110.5,34,100.7,40.5z"/>
	<path d="M107.4,48.4c5.9-4.4,11.8-8.8,17.7-13.3c-0.5,27.6,0.1,55.3-0.3,83c3.5,0,6.9,0,10.4,0c-0.1-27.6,0.2-55.2-0.2-82.8
		c7,4.8,13.3,10.5,20.5,15.1c7.3,0.4,14.5-0.1,21.8,0.2c0.3,21.5-1.9,43-2.9,64.5c-0.9,13.3-1.5,26.5-2.5,39.8
		c-1,1.5-2.6,2.3-3.9,3.5c-12.7,9.6-25.3,19.3-38.1,28.9c-14-11.4-28.5-22-42.5-33.3c-2-29.4-4.4-58.9-6.4-88.3c-0.2-5,0-10-0.3-15
		c7.3-0.2,14.6,0,21.9-0.1C104.6,50.9,106,49.4,107.4,48.4z"/>
	<path d="M57,74.7c5.8-2.5,11.5-5.2,17.3-7.8c1.8,30.2,3.8,60.5,5.6,90.7c15.8,12.1,31.7,24.1,47.5,36.2c1.9-0.3,4.1,0.1,5.7-1.4
		c15.9-11.9,31.6-24.1,47.4-36c1.6-30,3.7-59.9,5.2-89.9c5.7,2.8,11.4,5.7,17.2,8.4c-1.8,32.3-3.4,64.6-5.3,96.8
		c-22.1,18.1-44.8,35.6-67.2,53.3c-22.6-17.7-45.2-35.5-67.8-53.3C61,139.4,59,107.1,57,74.7z"/>
	<path d="M10.4,246.1c10.4-13.1,20.8-26.1,31-39.3c2.8,2.8,5.5,5.6,8.5,8.3c-9.7,7.7-19.4,15.4-29.1,23.1
		C17.3,240.8,14.2,244,10.4,246.1z"/>
	<path d="M219.9,206.9c10.5,13.1,20.8,26.4,31.4,39.4c-13.5-9.9-26.3-21-39.7-31.2C214.5,212.5,217.2,209.7,219.9,206.9z"/>
</g>
</svg>
