<?xml version="1.0" encoding="UTF-8" ?>
<!DOCTYPE svg PUBLIC "-//W3C//DTD SVG 1.1//EN" "http://www.w3.org/Graphics/SVG/1.1/DTD/svg11.dtd">
<svg width="256pt" height="256pt" viewBox="0 0 256 256" version="1.1" xmlns="http://www.w3.org/2000/svg">
<g id="#ffffffff">
</g>
<g id="#000000ff">
<path fill="#000000" opacity="1.00" d=" M 25.38 36.56 C 28.91 32.92 32.53 29.37 36.07 25.73 C 44.62 34.05 52.88 42.67 61.46 50.96 C 73.18 51.58 85.02 51.01 96.78 51.24 C 96.70 55.68 96.72 60.12 96.79 64.56 C 85.91 64.60 75.04 64.60 64.16 64.56 C 64.33 75.42 64.24 86.29 64.23 97.15 C 59.77 97.13 55.30 97.12 50.84 97.16 C 50.81 85.44 50.77 73.73 50.86 62.01 C 42.37 53.53 33.91 45.01 25.38 36.56 Z" />
<path fill="#000000" opacity="1.00" d=" M 78.50 75.60 C 76.95 74.09 75.40 72.56 74.01 70.89 C 77.71 70.96 81.41 70.89 85.11 70.95 C 86.48 70.70 87.33 71.94 88.27 72.68 C 119.60 104.05 150.95 135.39 182.30 166.74 C 187.40 172.21 194.90 174.60 200.43 179.44 C 207.94 193.79 215.25 208.26 222.73 222.64 C 208.57 215.25 194.30 208.09 180.08 200.84 C 177.73 199.50 176.88 196.69 175.36 194.60 C 172.63 190.68 170.72 186.14 167.19 182.85 C 135.08 150.83 103.10 118.68 70.96 86.70 C 70.83 82.41 70.91 78.12 70.86 73.84 C 100.15 103.32 129.59 132.66 159.00 162.03 C 159.97 161.00 160.95 159.98 161.94 158.97 C 134.07 131.24 106.34 103.37 78.50 75.60 Z" />
<path fill="#000000" opacity="1.00" d=" M 223.18 162.31 C 225.27 140.36 227.84 118.45 230.04 96.51 C 230.77 102.34 230.13 108.21 230.23 114.07 C 230.33 146.80 230.05 179.54 230.37 212.26 C 228.59 210.14 228.20 207.27 227.07 204.81 C 217.90 182.34 209.14 159.69 199.82 137.28 C 207.90 145.32 215.14 154.21 223.18 162.31 Z" />
<path fill="#000000" opacity="1.00" d=" M 137.22 199.97 C 162.44 209.88 187.57 220.11 212.75 230.18 C 184.83 230.25 156.89 230.18 128.96 230.20 C 118.15 229.96 107.31 230.66 96.52 230.05 C 118.52 227.78 140.49 225.23 162.50 223.13 C 154.11 215.37 145.65 207.68 137.22 199.97 Z" />
</g>
</svg>
