<?xml version="1.0" encoding="utf-8"?>
<!-- Generator: Adobe Illustrator 23.0.3, SVG Export Plug-In . SVG Version: 6.00 Build 0)  -->
<svg version="1.1" id="图层_1" xmlns="http://www.w3.org/2000/svg" xmlns:xlink="http://www.w3.org/1999/xlink" x="0px" y="0px"
	 viewBox="0 0 256 256" style="enable-background:new 0 0 256 256;" xml:space="preserve">
<g>
	<path d="M2.8,16.4c4.3-4.4,8.7-8.8,13-13.2c10.4,10.2,20.5,20.7,31,30.8c14.3,0.8,28.8,0.1,43.1,0.3c-0.1,5.4-0.1,10.8,0,16.3
		c-13.3,0-26.5,0-39.8,0c0.2,13.3,0.1,26.5,0.1,39.8c-5.4,0-10.9,0-16.3,0c0-14.3-0.1-28.6,0-42.9C23.5,37.1,13.2,26.7,2.8,16.4z"/>
	<path d="M67.6,64c-1.9-1.8-3.8-3.7-5.5-5.7c4.5,0.1,9,0,13.5,0.1c1.7-0.3,2.7,1.2,3.9,2.1C117.8,98.8,156,137,194.3,175.3
		c6.2,6.7,15.4,9.6,22.1,15.5c9.2,17.5,18.1,35.2,27.2,52.7c-17.3-9-34.7-17.8-52.1-26.6c-2.9-1.6-3.9-5.1-5.8-7.6
		c-3.3-4.8-5.7-10.3-10-14.3c-39.2-39.1-78.2-78.3-117.5-117.4c-0.2-5.2-0.1-10.5-0.1-15.7c35.7,36,71.7,71.8,107.6,107.6
		c1.2-1.3,2.4-2.5,3.6-3.7C135.4,132,101.6,97.9,67.6,64z"/>
	<path d="M244.2,169.9c2.6-26.8,5.7-53.5,8.4-80.3c0.9,7.1,0.1,14.3,0.2,21.4c0.1,39.9-0.2,79.9,0.2,119.8c-2.2-2.6-2.6-6.1-4-9.1
		c-11.2-27.4-21.9-55.1-33.3-82.4C225.5,149.1,234.4,160,244.2,169.9z"/>
	<path d="M139.3,215.8c30.8,12.1,61.5,24.6,92.2,36.9c-34.1,0.1-68.2,0-102.3,0c-13.2-0.3-26.4,0.6-39.6-0.2
		c26.9-2.8,53.7-5.9,80.5-8.4C159.9,234.6,149.6,225.2,139.3,215.8z"/>
</g>
</svg>
