<?xml version="1.0" encoding="utf-8"?>
<!-- Generator: Adobe Illustrator 23.0.3, SVG Export Plug-In . SVG Version: 6.00 Build 0)  -->
<svg version="1.1" id="图层_1" xmlns="http://www.w3.org/2000/svg" xmlns:xlink="http://www.w3.org/1999/xlink" x="0px" y="0px"
	 viewBox="0 0 78 80" style="enable-background:new 0 0 78 80;" xml:space="preserve">
<g>
	<path d="M9,63.4l-5.2-9c0,0,20.4-11.8,30.7-17.6c-0.2-11.3,0-22.5-0.1-33.8c3.5,0,6.9,0,10.4,0.1c-0.2,11.2,0,22.4-0.1,33.6
		c9.8,5.8,29.7,17.1,29.7,17.1l-5.2,9.1L39.6,45.7L9,63.4z"/>
	<path d="M17.7,6l11.2,0.1l0.2,4l-7.3,0l0,7.1l-4.1,0L17.7,6z"/>
	<path d="M50.2,6.1L61.3,6l0.1,11.2h-4.1l0.1-7l-7.2,0V6.1z"/>
	<path d="M4.3,25.4l5.2-9l18.7,10.9l-0.1,6l-5,3L4.3,25.4z"/>
	<path d="M50.9,27.3l17.9-10.2l5,8.8L56,36.2l-5-3.1L50.9,27.3z"/>
	<path d="M2.3,40.1l8.1-7.8l2.9,3l-5.3,4.8l5.3,5.2l-3,2.8L2.3,40.1z"/>
	<path d="M65.1,35.3l3.1-3l7.9,7.8L68,48l-2.9-2.6l5.3-5.3L65.1,35.3z"/>
	<path d="M34.4,55.8l5.2-3.1l5.2,3.1l0.1,21.8l-10.5,0L34.4,55.8z"/>
	<path d="M57.3,63.2l4.1,0l0.1,11.2l-11.3,0l0-4l7.2,0L57.3,63.2z"/>
	<path d="M17.7,63.2h4.1l0,7.2l7.2,0.1l0,3.8l-11.4,0L17.7,63.2z"/>
</g>
</svg>
