<?xml version="1.0" encoding="utf-8"?>
<!-- Generator: Adobe Illustrator 23.0.3, SVG Export Plug-In . SVG Version: 6.00 Build 0)  -->
<svg version="1.1" id="图层_1" xmlns="http://www.w3.org/2000/svg" xmlns:xlink="http://www.w3.org/1999/xlink" x="0px" y="0px"
	 viewBox="0 0 81 78" style="enable-background:new 0 0 81 78;" xml:space="preserve">
<g>
	<path d="M3.8,6.6l4-4l9.2,9.2l12.5,0l0,4.8l-11.8,0l0.1,11.6l-4.8,0l0.1-12.5L3.8,6.6z"/>
	<path d="M21.2,18.7l4.5,0.1c0,0,23,22.9,34.6,34.2c2.2,2,5.5,2.9,6.9,5.7c2.5,4.7,4.8,9.5,7.5,14.1c-5.3-2.9-10.8-5.5-16.1-8.3
		c-1.5-2.7-3.2-5.4-5.5-7.5c-11-10.8-32.9-32.5-32.9-32.5l-0.1-4.7c0,0,19.2,19,28.7,28.6c1.1,1.2,2.7,2.1,4.1,3
		c-0.9-2.2-1.9-2.9-2.9-4.1C40.3,37.7,21.2,18.7,21.2,18.7z"/>
	<path d="M74.6,51.1c0.8-7.5,1.5-15,2.4-22.6c0.1,6.6,0.1,13.2,0.1,19.9c-0.1,6.8,0.2,13.7,0,20.5c-4-8.8-6.6-18.2-11.4-26.5
		C69,45.2,71.4,48.5,74.6,51.1z"/>
	<path d="M43.7,64.3c9,3.8,18.2,7,27.1,11.1c-13.6-0.7-27.3,0.3-40.9-0.1c7.6-1.1,15.3-2,23-2.6C50,69.7,46.6,67.3,43.7,64.3z"/>
</g>
</svg>
