<?xml version="1.0" encoding="utf-8"?>
<!-- Generator: Adobe Illustrator 23.0.3, SVG Export Plug-In . SVG Version: 6.00 Build 0)  -->
<svg version="1.1" id="图层_1" xmlns="http://www.w3.org/2000/svg" xmlns:xlink="http://www.w3.org/1999/xlink" x="0px" y="0px"
	 viewBox="0 0 78 78" style="enable-background:new 0 0 78 78;" xml:space="preserve">
<g>
	<path d="M15.5,2.7l33.1,0L22.9,5.1l2.9,7.8L15.5,2.7z"/>
	<path d="M4.1,7.9l3.7-3.8l2.6,2.6L7.4,9.3l0.1,9.1l4.8,4.9l10.1,0l0,3.3l-11.5,0l-6.8-6.8V7.9z"/>
	<path d="M9.7,9.8l6.9,0l4.4,4.5L21,21.2l-6.9-0.1L9.6,17L9.7,9.8z"/>
	<path d="M24.6,18.2l3.9,3.9c0,0-0.7,3.8,0.9,4.9c5.4,5.2,10.5,10.8,16.1,15.8c0.4,0,1.2,0.1,1.6,0.1c3.4,2.7,5,7,8.2,9.9
		c6.7,6.6,20.3,19.8,20.3,19.8l-2.8,3c0,0-14.7-15-22.2-22.4c-2.7-2.4-7.9-3.6-7.9-8c-6-5.9-12-11.7-17.8-17.8
		C24.2,24.5,24.6,18.2,24.6,18.2z"/>
	<path d="M3.5,24.2L14,34.8l-8.2-3l-2,25.3l-0.3-5L3.5,24.2z"/>
</g>
</svg>
