<?xml version="1.0" encoding="utf-8"?>
<!-- Generator: Adobe Illustrator 23.0.3, SVG Export Plug-In . SVG Version: 6.00 Build 0)  -->
<svg version="1.1" id="图层_1" xmlns="http://www.w3.org/2000/svg" xmlns:xlink="http://www.w3.org/1999/xlink" x="0px" y="0px"
	 viewBox="0 0 81 79" style="enable-background:new 0 0 81 79;" xml:space="preserve">
<g>
	<path d="M40.5,3l1.3,9.9l21,41.1l-20.4,0.1l3.4-6.5l7.3,0.1c0,0-8.3-16.7-12.9-24.8c-2.6,5.8-8.7,17-8.7,17l10.4,0.2l-3.5,6.5
		l-16.7-0.1l17-33.3L40.5,3z"/>
	<path d="M18.7,53l6.7-0.1l-6.5,12.6l43.1,0l-2.7-5l6.4,0l4.9,9.4l6.9,6.1l-7.7-4.1l-58.9,0L3.4,76l6.8-6.2L18.7,53z"/>
</g>
</svg>
