<?xml version="1.0" encoding="utf-8"?>
<!-- Generator: Adobe Illustrator 23.0.3, SVG Export Plug-In . SVG Version: 6.00 Build 0)  -->
<svg version="1.1" id="图层_1" xmlns="http://www.w3.org/2000/svg" xmlns:xlink="http://www.w3.org/1999/xlink" x="0px" y="0px"
	 viewBox="0 0 78 76" style="enable-background:new 0 0 78 76;" xml:space="preserve">
<g>
	<path d="M51.7,4.8c6.8-0.3,13.7,0.2,20.5,0C72,12,72.6,19.2,72.1,26.4c-1.2-6.1-2-12.3-3-18.5C63.4,6.5,57.3,6.6,51.7,4.8z"/>
	<path d="M25,13.2c3.6-2.1,7.1-4.3,10.7-6.4c7,2,14.1,3.8,21.2,5.3c1.1,1,2.2,2,3.3,3.1c1.3-0.5,2.7-1,4.1-1.5
		c-0.6,1.3-1.1,2.6-1.7,3.9c1.3,1.4,3.1,2.6,3.4,4.6c1.7,6.7,3.3,13.5,5,20.2c-2.2,3.2-4.3,6.6-6.3,10c-0.5-0.3-1.6-1-2.1-1.3
		c0.5-0.9,1-1.7,1.5-2.5c-9.9,0-19.7,0-29.6,0.1c-2.2,2.1-4.5,4.2-6.5,6.6c2.1-0.2,4.1-0.5,6.2-0.6c-0.2,1.7-0.3,3.3-0.7,4.9
		c-4.1,0.5-8.3,0.4-12.4,1.1c-3.7,3-6.8,6.7-10.2,10c-1.2-1.2-2.5-2.4-3.7-3.6c3.4-3.3,6.8-6.7,10.2-10.1c0.3-4.3,0.6-8.5,0.9-12.8
		c1.7-0.1,3.4-0.3,5.1-0.4c-0.3,2.1-0.6,4.2-0.9,6.3c2.4-2.2,4.6-4.6,6.9-6.9c0.1-9.9,0-19.9,0.9-29.7c-1.1,0.7-2.1,1.3-3.2,2
		C26.3,14.4,25.6,13.8,25,13.2 M31,12.9c-0.6,10-0.6,30.1-0.6,30.1l-0.1,2.7c0,0-6.5,6.1-8.5,10c3.5-2.3,6.2-5.6,9.3-8.4
		c11.1-0.1,22.2-0.1,33.4,0c1.1-1.8,2.3-3.6,3.4-5.3c-1.7-5.5-2.7-11.1-4.3-16.6c-0.4-0.2-1.2-0.7-1.6-1c-3.9,1-7.1,2.4-10.1,5.3
		c-1.4,0.8-3.6,2.6-3.6,2.6L35.3,44.9l-3.6,0.9l0.4-3.5c0,0,8.7-8.8,13.1-13c1.6-1.5,2.5-3.3,3.9-5.2c1.7-2.3,2.9-5.5,4.3-8.3
		c-0.7-1.3-1.9-2.2-3.3-2.3c-4.2-1-8.4-2-12.6-3.1C35,9.3,32.7,11.3,31,12.9z"/>
	<path d="M38,50.9c6.2,0.4,12.4,0.3,18.5,1.1c-6.2,0.5-12.4,0.5-18.6,0.7C37.9,52.2,37.9,51.3,38,50.9z"/>
	<path d="M25.9,40.1c0.4-4.3,0.3-8.7,0.9-13c0.3,4.3,0.2,8.7,0.3,13.1C26.8,40.1,26.2,40.1,25.9,40.1z"/>
</g>
</svg>
