<?xml version="1.0" encoding="utf-8"?>
<!-- Generator: Adobe Illustrator 23.0.3, SVG Export Plug-In . SVG Version: 6.00 Build 0)  -->
<svg version="1.1" id="图层_1" xmlns="http://www.w3.org/2000/svg" xmlns:xlink="http://www.w3.org/1999/xlink" x="0px" y="0px"
	 viewBox="0 0 78 79" style="enable-background:new 0 0 78 79;" xml:space="preserve">
<g>
	<path d="M2.3,2.2h34l-0.1,24.4l6.1,6.1l0-30.5l33.7,0l0.1,73.5l-33.5,0l0.1-6.9l26.9,0.4l0-60.5H49.8l0,5.6l13.5,0l0.2,43.5
		c0,0-23.7-23.6-35.6-35.4C28,17.9,28,8.8,28,8.8l-6-0.1l0,13.4L8.8,22l0,46.9L21,69l0-5.5L15,63.4V27.9l7.5,0.1l35.9,35.6
		l-15.8-0.2L42.7,52l-5.9-6.1l0,30L2.1,75.7C2.1,75.7,2.2,26.7,2.3,2.2 M8.8,8.8l0,10.4l10.5,0l0-10.3H8.8z"/>
</g>
</svg>
